# xmcd
#
# Track frame offsets: 
#        150
#        17516
#        38419
#        53969
#        74421
#        87374
#        99468
#        116911
#        130330
#        144828
#        160770
#        171241
#        185003
#        197838
#        211015
#
# Disc length: 3099 seconds
#
# Revision: 1
# Processed by: cddbd v1.5.2PL0 Copyright (c) Steve Scherf et al.
# Submitted via: ExactAudioCopyFreeDBPlugin 1.0
#
DISCID=cd0c190f
DTITLE=張德蘭 - 張德蘭 - 情歌篇 CD2
DYEAR=2012
DGENRE=Pop
TTITLE0=何必草草
TTITLE1=情人的眼淚
TTITLE2=何日再相見 [無線電視劇 "神雕俠侶" 主題曲]
TTITLE3=紫玉墜
TTITLE4=雙雙結伴去
TTITLE5=問世間
TTITLE6=情苦惱 [無線電視劇 "家有嬌妻" 插曲]
TTITLE7=情濃恨更濃 [無線電視劇"鐵橋三"主題曲]
TTITLE8=昨天我真愛你 [亞洲電視劇 "四口之家" 主題曲]
TTITLE9=蘭閨寂寂
TTITLE10=覓知音 [無線電視劇"鐵橋三"插曲]
TTITLE11=可知道
TTITLE12=燭光秋夜紫羅蘭
TTITLE13=愛的短箭 [無線電視劇 "家有嬌妻" 主題曲]
TTITLE14=陪你一起不是我
EXTD=
EXTT0=
EXTT1=
EXTT2=
EXTT3=
EXTT4=
EXTT5=
EXTT6=
EXTT7=
EXTT8=
EXTT9=
EXTT10=
EXTT11=
EXTT12=
EXTT13=
EXTT14=
PLAYORDER=
